<?xml version="1.0" standalone="no"?>
<!DOCTYPE svg PUBLIC "-//W3C//DTD SVG 20010904//EN"
 "http://www.w3.org/TR/2001/REC-SVG-20010904/DTD/svg10.dtd">
<svg version="1.0" xmlns="http://www.w3.org/2000/svg"
 width="1472.000000pt" height="832.000000pt" viewBox="0 0 1472.000000 832.000000"
 preserveAspectRatio="xMidYMid meet">

<g transform="translate(0.000000,832.000000) scale(0.100000,-0.100000)"
fill="#000000" stroke="none">
<path d="M5712 6009 c-123 -16 -248 -94 -294 -184 -25 -48 -35 -154 -19 -210
15 -59 64 -130 112 -164 136 -99 374 -115 536 -36 125 60 187 153 187 280 0
125 -66 220 -191 276 -93 43 -201 55 -331 38z"/>
<path d="M10895 5953 c21 -55 76 -254 98 -353 87 -393 123 -791 114 -1270 -11
-549 -78 -1004 -223 -1507 l-6 -23 371 0 c204 0 371 4 371 8 0 5 -9 35 -21 68
-31 90 -86 314 -113 464 -52 281 -74 512 -82 860 -14 548 50 1122 181 1628 19
72 35 134 35 137 0 3 -165 5 -366 5 -345 0 -366 -1 -359 -17z"/>
<path d="M445 5894 c-194 -14 -332 -26 -347 -30 -15 -4 -14 -12 8 -77 33 -96
98 -365 123 -504 53 -296 74 -553 73 -908 0 -489 -55 -916 -174 -1365 -22 -85
-43 -167 -45 -182 l-5 -28 401 0 c220 0 401 4 401 9 0 4 -8 19 -19 32 -40 52
-123 209 -161 306 -73 185 -113 396 -126 659 l-7 141 269 6 c178 4 301 12 364
23 442 76 750 352 838 749 18 86 20 269 3 350 -36 169 -134 338 -273 470 -167
161 -374 264 -641 321 -110 24 -147 26 -377 29 -140 1 -277 1 -305 -1z m1235
-729 c81 -42 83 -171 7 -321 -95 -188 -364 -441 -597 -563 -155 -80 -242 -96
-307 -55 -65 41 -71 168 -15 288 70 148 226 322 415 463 225 166 406 235 497
188z"/>
<path d="M12125 5893 c-260 -20 -324 -26 -334 -33 -9 -5 -5 -28 13 -86 131
-422 188 -845 189 -1394 0 -495 -51 -913 -169 -1388 -26 -101 -44 -185 -43
-187 17 -17 568 -50 699 -42 661 40 1165 400 1354 969 99 295 119 664 56 1043
-112 683 -493 1046 -1169 1114 -92 10 -493 13 -596 4z m1439 -711 c115 -45
167 -127 167 -259 0 -43 -7 -105 -16 -138 -24 -95 -127 -289 -217 -410 -98
-131 -332 -368 -478 -485 -266 -212 -581 -383 -740 -402 -24 -3 -26 1 -37 67
-7 39 -15 140 -19 225 -6 132 -3 173 14 275 75 437 342 832 695 1029 82 46
258 104 349 116 102 12 225 5 282 -18z"/>
<path d="M4120 5114 c-277 -59 -483 -325 -560 -723 -60 -308 -40 -772 45
-1064 93 -322 272 -533 480 -565 77 -12 184 1 249 31 142 66 273 252 355 503
26 81 31 89 55 92 27 3 27 3 21 -45 -15 -109 -48 -285 -75 -402 -17 -68 -30
-127 -30 -132 0 -5 141 -9 326 -9 305 0 325 1 320 18 -83 269 -152 598 -177
845 -17 175 -7 556 20 727 30 188 98 481 157 673 5 16 -12 17 -260 17 l-266 0
0 -23 c0 -12 14 -119 30 -237 17 -118 30 -216 30 -217 0 -2 -11 -3 -25 -3 -19
0 -26 7 -31 28 -41 182 -84 272 -170 358 -70 70 -140 108 -239 129 -86 18
-169 18 -255 -1z m839 -584 c87 -44 113 -157 67 -294 -47 -138 -135 -266 -286
-416 -121 -120 -205 -188 -350 -285 -353 -236 -605 -277 -681 -111 -37 82 -12
222 62 347 119 204 392 463 649 616 265 158 426 201 539 143z"/>
<path d="M3148 5106 c-208 -74 -312 -281 -377 -746 -45 -320 -41 -300 -67
-300 -13 0 -24 6 -24 13 -1 6 30 233 67 504 37 271 65 495 62 498 -3 3 -152 4
-331 3 l-325 -3 44 -155 c52 -187 106 -448 129 -625 22 -177 23 -517 1 -685
-30 -224 -102 -537 -182 -789 l-6 -21 331 0 c313 0 332 1 325 18 -80 183 -114
335 -121 541 -7 165 8 286 51 436 98 336 329 588 574 626 66 10 139 7 177 -8
12 -4 14 50 14 331 l0 335 -38 11 c-122 32 -240 39 -304 16z"/>
<path d="M9865 5109 c-254 -43 -476 -241 -596 -532 -94 -230 -134 -510 -110
-781 38 -435 191 -751 444 -919 219 -146 557 -154 786 -20 314 184 500 629
477 1143 -18 434 -146 758 -378 956 -71 61 -214 130 -310 149 -82 16 -231 18
-313 4z m696 -561 c117 -39 158 -153 109 -309 -93 -302 -573 -734 -980 -884
-99 -36 -217 -41 -270 -9 -130 76 -114 278 39 503 208 305 677 642 972 700 64
13 92 12 130 -1z"/>
<path d="M5472 4988 c84 -262 150 -648 179 -1053 15 -211 15 -719 0 -920 -32
-425 -99 -839 -190 -1165 -12 -41 -21 -78 -21 -82 0 -5 167 -8 371 -8 344 0
371 1 365 17 -26 66 -83 286 -111 428 -78 386 -100 649 -100 1170 1 441 12
612 61 955 29 207 93 530 129 650 13 47 25 88 25 93 0 4 -166 7 -369 7 l-369
0 30 -92z"/>
<path d="M6313 5063 c126 -451 169 -673 186 -972 11 -194 0 -363 -44 -683 -54
-383 -46 -508 34 -581 54 -49 100 -62 211 -61 114 1 173 21 285 95 134 90 301
295 395 487 31 62 38 71 63 71 26 1 28 -2 23 -26 -17 -87 -30 -223 -30 -333
-1 -144 16 -198 76 -243 40 -31 133 -57 203 -57 242 0 500 230 690 615 55 111
127 313 140 393 6 38 9 42 36 42 16 0 29 -5 29 -12 0 -15 -129 -936 -136 -970
l-6 -28 331 0 c276 0 331 2 331 14 0 8 -9 42 -19 77 -35 112 -80 298 -106 428
-111 567 -80 1016 113 1664 l29 97 -334 0 c-315 0 -335 -1 -328 -17 29 -68 78
-225 97 -313 19 -89 22 -135 22 -305 0 -184 -2 -208 -27 -298 -30 -112 -95
-256 -158 -348 -139 -205 -398 -391 -625 -449 -161 -41 -230 -18 -228 77 3 93
51 163 274 398 287 304 418 511 465 736 29 138 14 330 -36 466 l-20 53 -389 0
-388 0 39 -110 c58 -165 79 -280 86 -466 9 -240 -18 -382 -108 -570 -74 -157
-239 -342 -390 -441 -150 -96 -330 -163 -443 -163 -65 0 -98 30 -98 91 0 90
41 154 221 346 263 283 369 421 446 586 101 216 114 443 37 667 l-19 55 -468
3 c-442 2 -467 1 -462 -15z"/>
</g>
</svg>
